<svg xmlns="http://www.w3.org/2000/svg" width="33" height="33"><defs><clipPath id="a"><path d="M24.444 22H3.055A3.1 3.1 0 010 18.857V3.143A3.1 3.1 0 013.055 0h21.389A3.1 3.1 0 0127.5 3.143v15.714A3.1 3.1 0 0124.444 22zM11.4 16.5a3.047 3.047 0 012.569 1.346 3.356 3.356 0 01.543 1.841v.741h9.931a1.552 1.552 0 001.528-1.572V6.285H1.528v12.572a1.552 1.552 0 001.527 1.572h.764v-.741a3.347 3.347 0 01.544-1.841A3.027 3.027 0 016.932 16.5a3.424 3.424 0 011.033.163 4.079 4.079 0 002.4 0A3.426 3.426 0 0111.4 16.5zm-4.463 1.576a1.537 1.537 0 00-1.3.648 1.758 1.758 0 00-.286.963v.741H13v-.741a1.749 1.749 0 00-.287-.963 1.541 1.541 0 00-1.3-.648 2.612 2.612 0 00-.706.126 5.478 5.478 0 01-3.063 0 2.586 2.586 0 00-.707-.126zM3.055 1.572a1.552 1.552 0 00-1.527 1.571v1.572h24.445V3.143a1.552 1.552 0 00-1.528-1.572zm19.48 15.713h-5.347a.388.388 0 01-.382-.392v-.786a.389.389 0 01.382-.394h5.347a.389.389 0 01.382.394v.786a.388.388 0 01-.382.392zM9.166 15.714a3.93 3.93 0 010-7.857 3.93 3.93 0 010 7.857zm0-6.285a2.358 2.358 0 102.292 2.357 2.327 2.327 0 00-2.292-2.357zm13.369 4.715h-5.347a.389.389 0 01-.382-.394v-.786a.388.388 0 01.382-.392h5.347a.388.388 0 01.382.392v.786a.389.389 0 01-.382.393zm0-3.143h-5.347a.389.389 0 01-.382-.394v-.785a.389.389 0 01.382-.394h5.347a.389.389 0 01.382.394v.785a.389.389 0 01-.382.393z" fill="#0074c8"/></clipPath></defs><path d="M27.194 27.5H5.805a3.1 3.1 0 01-3.055-3.143V8.643A3.1 3.1 0 015.805 5.5h21.389a3.1 3.1 0 013.056 3.143v15.714a3.1 3.1 0 01-3.056 3.143zM14.15 22a3.047 3.047 0 012.569 1.346 3.356 3.356 0 01.543 1.841v.741h9.931a1.552 1.552 0 001.528-1.572V11.785H4.278v12.572a1.552 1.552 0 001.527 1.572h.764v-.741a3.347 3.347 0 01.544-1.841A3.027 3.027 0 019.682 22a3.424 3.424 0 011.033.163 4.079 4.079 0 002.4 0A3.426 3.426 0 0114.15 22zm-4.463 1.576a1.537 1.537 0 00-1.3.648 1.758 1.758 0 00-.286.963v.741h7.649v-.741a1.749 1.749 0 00-.287-.963 1.541 1.541 0 00-1.3-.648 2.612 2.612 0 00-.706.126 5.478 5.478 0 01-3.063 0 2.586 2.586 0 00-.707-.126zM5.805 7.072a1.552 1.552 0 00-1.527 1.571v1.572h24.445V8.643a1.552 1.552 0 00-1.528-1.572zm19.48 15.713h-5.347a.388.388 0 01-.382-.392v-.786a.389.389 0 01.382-.394h5.347a.389.389 0 01.382.394v.786a.388.388 0 01-.382.392zm-13.369-1.571a3.93 3.93 0 010-7.857 3.93 3.93 0 010 7.857zm0-6.285a2.358 2.358 0 102.292 2.357 2.327 2.327 0 00-2.292-2.357zm13.369 4.715h-5.347a.389.389 0 01-.382-.394v-.786a.388.388 0 01.382-.392h5.347a.388.388 0 01.382.392v.786a.389.389 0 01-.382.393zm0-3.143h-5.347a.389.389 0 01-.382-.394v-.785a.389.389 0 01.382-.394h5.347a.389.389 0 01.382.394v.785a.389.389 0 01-.382.393z" fill="#0074c8"/><g clip-path="url(#a)" transform="translate(2.75 5.5)"><path fill="#0074c8" d="M-2.75-5.5h33v33h-33z"/></g></svg>